#!OML:ASF H:\BreakDance\Project 1\Capture day 1\Session 1\Male.ASF
:FULLY-SPECIFIED
:DEGREES
802
root 5.58291 3.62246 5.43947 207.657 -103.233 124.086
lowerback 31.0396 14.4493 -4.99599
upperback 24.5201 14.0455 0.839586
thorax 10.2383 5.07361 0.305896
lowerneck -32.5307 -1.90571 9.65158
upperneck 14.9165 -9.22353 8.90226
head 10.1385 -2.56539 0.118219
rclavicle 2.38542e-014 -6.67916e-014
rhumerus -40.6792 24.8077 -106.431
rradius 41.4343
rwrist -44.8224
rhand -22.0741 -51.8068
rfingers 7.12502
rthumb 4.33726 -81.7423
lclavicle 2.38542e-014 -6.67916e-014
lhumerus -26.3832 34.6304 48.2511
lradius 10.5718
lwrist -8.84691
lhand -54.4783 -66.3659
lfingers 7.12502
lthumb -26.881 -38.2572
rfemur -118.451 -25.241 18.5218
rtibia 135.494
rfoot -4.70427 26.9461
rtoes -22.3168
lfemur -135.645 37.2114 -17.4749
ltibia 132.26
lfoot 17.2892 -42.2993
ltoes -45.1417
803
root 5.36555 3.48523 5.49456 205.169 -102.022 126.169
lowerback 29.8776 14.9273 -5.74785
upperback 24.7865 14.661 1.12924
thorax 10.7492 5.25199 0.999317
lowerneck -31.599 -2.8055 8.69565
upperneck 15.8571 -9.91282 8.63811
head 10.3512 -2.91525 0.0453191
rclavicle 1.01778e-013 -8.26944e-014
rhumerus -42.8945 26.749 -107.951
rradius 41.5651
rwrist -45.3948
rhand -22.1346 -53.9267
rfingers 7.12502
rthumb 4.27882 -83.8635
lclavicle 1.01778e-013 -8.26944e-014
lhumerus -28.0957 34.6702 47.2221
lradius 10.6939
lwrist -10.7369
lhand -54.3695 -65.1301
lfingers 7.12502
lthumb -26.7769 -37.0053
rfemur -121.404 -27.4905 19.1949
rtibia 137.593
rfoot -4.49296 28.1557
rtoes -18.8608
lfemur -141.581 40.9862 -22.8554
ltibia 134.997
lfoot 19.7388 -45.0262
ltoes -43.7207
804
root 5.14307 3.36573 5.56625 200.973 -100.938 129.899
lowerback 28.6526 15.2661 -6.36476
upperback 25.133 15.1695 1.49187
thorax 11.3858 5.37806 1.76225
lowerneck -30.8171 -3.66251 7.74661
upperneck 16.7775 -10.5614 8.26644
head 10.5732 -3.26306 -0.057637
rclavicle 2.8625e-014 -1.24042e-013
rhumerus -45.6302 28.3378 -109.619
rradius 41.7672
rwrist -46.3475
rhand -21.8111 -54.8986
rfingers 7.12502
rthumb 4.59121 -84.8289
lclavicle 2.8625e-014 -1.24042e-013
lhumerus -29.5759 34.8813 46.2856
lradius 10.3787
lwrist -13.2156
lhand -54.4908 -63.8445
lfingers 7.12502
lthumb -26.893 -35.7376
rfemur -123.865 -30.1534 19.5923
rtibia 139.179
rfoot -3.99004 30.673
rtoes -15.6907
lfemur -148.338 44.405 -29.6277
ltibia 137.686
lfoot 22.7701 -47.6633
ltoes -37.3263
805
root 4.91621 3.26318 5.63807 194.746 -100.307 135.675
lowerback 27.4615 15.425 -6.87642
upperback 25.4918 15.4988 1.91588
thorax 12.0363 5.41932 2.59215
lowerneck -30.1371 -4.4912 6.79278
upperneck 17.6709 -11.2235 7.97601
head 10.813 -3.61215 -0.133028
rclavicle 1.145e-013 -8.11041e-014
rhumerus -48.5406 29.0572 -111.166
rradius 42.1257
rwrist -47.4007
rhand -21.0298 -54.7288
rfingers 7.12502
rthumb 5.34555 -84.6414
lclavicle 1.145e-013 -8.11041e-014
lhumerus -29.7531 32.6074 47.2041
lradius 9.70651
lwrist -13.2747
lhand -55.095 -62.8899
lfingers 7.12502
lthumb -27.471 -34.8733
rfemur -125.962 -33.4481 19.8667
rtibia 140.361
rfoot -3.49782 34.58
rtoes -14.1082
lfemur -154.917 47.1163 -37.2734
ltibia 139.917
lfoot 26.1991 -50.0994
ltoes -25.5958
806
root 4.69161 3.18176 5.6958 188.141 -100.267 141.81
lowerback 26.3499 15.4282 -7.22282
upperback 25.8378 15.6695 2.41148
thorax 12.668 5.39408 3.45581
lowerneck -29.474 -5.28106 5.85321
upperneck 18.459 -11.9093 7.89653
head 11.0402 -3.95685 -0.138303
rclavicle -7.15625e-014 2.06736e-014
rhumerus -51.2043 28.7682 -112.379
rradius 42.5532
rwrist -48.4398
rhand -20.213 -53.702
rfingers 7.12502
rthumb 6.1342 -83.5932
lclavicle -7.15625e-014 2.06736e-014
lhumerus -29.5522 30.3675 48.2635
lradius 8.715
lwrist -13.4715
lhand -55.7949 -62.109
lfingers 7.12502
lthumb -28.1402 -34.2006
rfemur -127.715 -37.2275 20.3085
rtibia 141.299
rfoot -3.24741 39.4052
rtoes -13.7171
lfemur -160.434 48.9559 -44.4786
ltibia 141.514
lfoot 28.7522 -52.217
ltoes -13.9787
807
root 4.47769 3.12434 5.73449 182.815 -100.708 146.64
lowerback 25.3699 15.3076 -7.36158
upperback 26.1146 15.7079 2.90538
thorax 13.2267 5.33394 4.23489
lowerneck -28.8106 -5.97516 5.00042
upperneck 19.1715 -12.5894 8.07503
head 11.266 -4.2692 -0.0627498
rclavicle -6.2816e-014 7.95139e-014
rhumerus -53.2643 27.5353 -113.175
rradius 42.8669
rwrist -49.4494
rhand -19.6896 -52.2963
rfingers 7.12502
rthumb 6.63948 -82.1722
lclavicle -6.2816e-014 7.95139e-014
lhumerus -29.0322 28.2135 49.3137
lradius 7.48881
lwrist -13.705
lhand -56.4281 -61.4884
lfingers 7.12502
lthumb -28.7453 -33.6811
rfemur -129.28 -41.2802 21.1306
rtibia 142.147
rfoot -3.18444 44.2327
rtoes -13.8374
lfemur -164.655 50.1688 -50.228
ltibia 142.654
lfoot 27.6963 -54.9556
ltoes -11.1987
